<svg version="1.1" preserveAspectRatio="none" xmlns="http://www.w3.org/2000/svg" width="500" height="500" viewBox="0 0 500 500"><rect width="100%" height="100%" fill="#008858" fill-opacity="1"/><svg viewBox="101.5178 364.9439 381.1223 106" width="333" height="92.61593981774355" x="83.5px" y="203.692px" xmlns="http://www.w3.org/2000/svg" xmlns:xlink="http://www.w3.org/1999/xlink" preserveAspectRatio="none"><defs></defs><style>.companyName {fill:#EBE7D9;fill-opacity:1;}.icon1 {fill:#FDEAA0;fill-opacity:1;}.icon3-str {stroke:#3E5C6D;stroke-opacity:1;}.shapeStroke-str {stroke:#EBE7D9;stroke-opacity:1;}</style><g opacity="1" transform="rotate(0 101.5178 468.9439)">
<svg width="381.1223" height="2" x="101.5178" y="468.9439" version="1.1" preserveAspectRatio="none" viewBox="0 0 381.1223 2">
  <defs><rect x="0" y="0" width="381.1223" height="2" rx="4%" ry="4%" id="id-UPl23ini1674989094348"></rect></defs><use class="icon1 shapeStroke-str" style="stroke-width:0;" xlink:href="#id-UPl23ini1674989094348"></use>
</svg>
</g><g opacity="1" transform="rotate(0 101.5178 364.9439)">
<svg width="381.1223" height="90" x="101.5178" y="364.9439" version="1.1" preserveAspectRatio="none" viewBox="2.56 -31.64 135.68 32.04">
  <g transform="matrix(1 0 0 1 0 0)" class="companyName"><path id="id-D6z1nYkh5" d="M18.44-31.64Q23.04-31.64 26.66-29.60Q30.28-27.56 32.30-23.92Q34.32-20.28 34.32-15.64L34.32-15.64Q34.32-11 32.30-7.34Q30.28-3.68 26.68-1.64Q23.08 0.40 18.44 0.40L18.44 0.40Q13.80 0.40 10.18-1.64Q6.56-3.68 4.56-7.34Q2.56-11 2.56-15.64L2.56-15.64Q2.56-20.28 4.56-23.92Q6.56-27.56 10.18-29.60Q13.80-31.64 18.44-31.64L18.44-31.64ZM18.44-27.88Q15-27.88 12.30-26.28Q9.60-24.68 8.08-21.88Q6.56-19.08 6.56-15.64L6.56-15.64Q6.56-12.20 8.08-9.40Q9.60-6.60 12.32-4.98Q15.04-3.36 18.44-3.36L18.44-3.36Q21.84-3.36 24.56-4.98Q27.28-6.60 28.80-9.40Q30.32-12.20 30.32-15.64L30.32-15.64Q30.32-19.08 28.80-21.88Q27.28-24.68 24.58-26.28Q21.88-27.88 18.44-27.88L18.44-27.88Z M63.44-22.08Q66.92-22.08 69.06-19.80Q71.20-17.52 71.20-13.44L71.20-13.44L71.20-2Q71.20-1.12 70.64-0.54Q70.08 0.04 69.16 0.04L69.16 0.04Q68.28 0.04 67.70-0.54Q67.12-1.12 67.12-2L67.12-2L67.12-13.44Q67.12-15.88 65.90-17.14Q64.68-18.40 62.64-18.40L62.64-18.40Q60.56-18.40 59.22-16.96Q57.88-15.52 57.88-13.28L57.88-13.28L57.88-2Q57.88-1.12 57.32-0.54Q56.76 0.04 55.84 0.04L55.84 0.04Q54.96 0.04 54.38-0.54Q53.80-1.12 53.80-2L53.80-2L53.80-13.44Q53.80-15.88 52.58-17.14Q51.36-18.40 49.32-18.40L49.32-18.40Q47.20-18.40 45.86-16.96Q44.52-15.52 44.52-13.28L44.52-13.28L44.52-2Q44.52-1.12 43.96-0.54Q43.40 0.04 42.48 0.04L42.48 0.04Q41.60 0.04 41.02-0.54Q40.44-1.12 40.44-2L40.44-2L40.44-19.80Q40.44-20.72 41.02-21.28Q41.60-21.84 42.48-21.84L42.48-21.84Q43.36-21.84 43.92-21.30Q44.48-20.76 44.52-19.88L44.52-19.88Q45.56-20.92 47-21.50Q48.44-22.08 50.12-22.08L50.12-22.08Q52.16-22.08 53.78-21.26Q55.40-20.44 56.44-18.92L56.44-18.92Q57.64-20.40 59.44-21.24Q61.24-22.08 63.44-22.08L63.44-22.08Z M88.84-22.08Q91.60-22.08 93.80-20.88Q96.00-19.68 97.24-17.38Q98.48-15.08 98.48-11.84L98.48-11.84L98.48-2Q98.48-1.12 97.90-0.54Q97.32 0.04 96.44 0.04L96.44 0.04Q95.56 0.04 94.98-0.54Q94.40-1.12 94.40-2L94.40-2L94.40-11.84Q94.40-15.08 92.66-16.74Q90.92-18.40 88.04-18.40L88.04-18.40Q86.36-18.40 84.98-17.72Q83.60-17.04 82.82-15.88Q82.04-14.72 82.04-13.28L82.04-13.28L82.04-2Q82.04-1.12 81.48-0.54Q80.92 0.04 80.00 0.04L80.00 0.04Q79.12 0.04 78.54-0.54Q77.96-1.12 77.96-2L77.96-2L77.96-19.84Q77.96-20.76 78.54-21.32Q79.12-21.88 80.00-21.88L80.00-21.88Q80.92-21.88 81.48-21.32Q82.04-20.76 82.04-19.84L82.04-19.84L82.04-19.40Q83.32-20.68 85.08-21.38Q86.84-22.08 88.84-22.08L88.84-22.08Z M105.64-19.84Q105.64-20.76 106.22-21.32Q106.80-21.88 107.68-21.88L107.68-21.88Q108.60-21.88 109.16-21.32Q109.72-20.76 109.72-19.84L109.72-19.84L109.72-2.04Q109.72-1.16 109.16-0.58Q108.60 0 107.68 0L107.68 0Q106.80 0 106.22-0.58Q105.64-1.16 105.64-2.04L105.64-2.04L105.64-19.84ZM107.68-30.72Q108.76-30.72 109.54-29.94Q110.32-29.16 110.32-28.08L110.32-28.08Q110.32-27 109.54-26.22Q108.76-25.44 107.68-25.44L107.68-25.44Q106.60-25.44 105.82-26.22Q105.04-27 105.04-28.08L105.04-28.08Q105.04-29.16 105.82-29.94Q106.60-30.72 107.68-30.72L107.68-30.72Z M127.24-22.04Q130.32-22.04 132.82-20.58Q135.32-19.12 136.78-16.58Q138.24-14.04 138.24-10.92L138.24-10.92L138.24-2Q138.24-1.12 137.66-0.54Q137.08 0.04 136.20 0.04L136.20 0.04Q135.32 0.04 134.74-0.54Q134.16-1.12 134.16-2L134.16-2L134.16-3.48Q132.76-1.76 130.76-0.80Q128.76 0.16 126.44 0.16L126.44 0.16Q123.56 0.16 121.22-1.28Q118.88-2.72 117.54-5.26Q116.20-7.80 116.20-10.92L116.20-10.92Q116.20-14.04 117.64-16.58Q119.08-19.12 121.62-20.58Q124.16-22.04 127.24-22.04L127.24-22.04ZM127.24-3.44Q129.24-3.44 130.86-4.42Q132.48-5.40 133.40-7.10Q134.32-8.80 134.32-10.92L134.32-10.92Q134.32-13.04 133.40-14.76Q132.48-16.48 130.86-17.46Q129.24-18.44 127.24-18.44L127.24-18.44Q125.24-18.44 123.62-17.46Q122.00-16.48 121.06-14.76Q120.12-13.04 120.12-10.92L120.12-10.92Q120.12-8.80 121.06-7.10Q122.00-5.40 123.62-4.42Q125.24-3.44 127.24-3.44L127.24-3.44Z"/></g>
</svg>
</g></svg></svg>